<svg xmlns="http://www.w3.org/2000/svg" width="512" height="512" viewBox="0 0 512 512">
  <defs>
    <linearGradient id="paperBase" x1="0%" y1="0%" x2="100%" y2="100%">
      <stop offset="0%" stop-color="#efe4c9"/>
      <stop offset="45%" stop-color="#e4d6b3"/>
      <stop offset="100%" stop-color="#dbc79a"/>
    </linearGradient>
    <filter id="paperCloud" x="-20%" y="-20%" width="140%" height="140%">
      <feTurbulence type="fractalNoise" baseFrequency="0.012 0.02" numOctaves="4" seed="17" result="noise"/>
      <feColorMatrix
        in="noise"
        type="matrix"
        values="
          1 0 0 0 0
          0 1 0 0 0
          0 0 1 0 0
          0 0 0 0.24 0"
        result="alphaNoise"/>
      <feGaussianBlur in="alphaNoise" stdDeviation="0.8"/>
    </filter>
    <filter id="fiberNoise" x="-20%" y="-20%" width="140%" height="140%">
      <feTurbulence type="fractalNoise" baseFrequency="0.65 0.05" numOctaves="2" seed="29" result="noise"/>
      <feColorMatrix
        in="noise"
        type="matrix"
        values="
          1 0 0 0 0
          0 1 0 0 0
          0 0 1 0 0
          0 0 0 0.16 0"
        result="alphaNoise"/>
      <feGaussianBlur in="alphaNoise" stdDeviation="0.18"/>
    </filter>
    <radialGradient id="foxingA" cx="35%" cy="30%" r="24%">
      <stop offset="0%" stop-color="#c89a60" stop-opacity="0.22"/>
      <stop offset="100%" stop-color="#c89a60" stop-opacity="0"/>
    </radialGradient>
    <radialGradient id="foxingB" cx="72%" cy="68%" r="26%">
      <stop offset="0%" stop-color="#8c5b32" stop-opacity="0.16"/>
      <stop offset="100%" stop-color="#8c5b32" stop-opacity="0"/>
    </radialGradient>
    <radialGradient id="edgeDarken" cx="50%" cy="50%" r="70%">
      <stop offset="58%" stop-color="#5e4320" stop-opacity="0"/>
      <stop offset="100%" stop-color="#5e4320" stop-opacity="0.18"/>
    </radialGradient>
  </defs>

  <rect width="512" height="512" fill="url(#paperBase)"/>
  <rect width="512" height="512" fill="#f4ead1" opacity="0.18"/>
  <rect width="512" height="512" fill="#8a6a3f" filter="url(#paperCloud)"/>
  <rect width="512" height="512" fill="#6e5332" filter="url(#fiberNoise)"/>
  <rect width="512" height="512" fill="url(#foxingA)"/>
  <rect width="512" height="512" fill="url(#foxingB)"/>
  <rect width="512" height="512" fill="url(#edgeDarken)"/>

  <g opacity="0.08" stroke="#805b30" stroke-linecap="round">
    <path d="M24 76 C92 58, 132 88, 190 72" stroke-width="1.4" fill="none"/>
    <path d="M278 118 C328 136, 378 102, 448 128" stroke-width="1.1" fill="none"/>
    <path d="M36 308 C88 286, 142 320, 214 300" stroke-width="1.5" fill="none"/>
    <path d="M286 376 C352 350, 406 392, 474 366" stroke-width="1.2" fill="none"/>
  </g>

  <g opacity="0.07" fill="#8f6736">
    <circle cx="120" cy="124" r="12"/>
    <circle cx="402" cy="92" r="16"/>
    <circle cx="328" cy="338" r="18"/>
    <circle cx="438" cy="402" r="10"/>
  </g>
</svg>
